<svg viewBox="0 0 400 300" preserveAspectRatio="xMaxYMid slice" fill="none" stroke="#9db4e8" stroke-width="1" aria-hidden="true" focusable="false">
  <g>
    <line x1="40" y1="60" x2="130" y2="120"/><line x1="130" y1="120" x2="220" y2="70"/>
    <line x1="220" y1="70" x2="310" y2="130"/><line x1="130" y1="120" x2="160" y2="220"/>
    <line x1="160" y1="220" x2="270" y2="240"/><line x1="310" y1="130" x2="270" y2="240"/>
    <line x1="220" y1="70" x2="250" y2="20"/><line x1="310" y1="130" x2="380" y2="80"/>
    <line x1="40" y1="60" x2="70" y2="170"/><line x1="70" y1="170" x2="160" y2="220"/>
  </g>
  <g fill="#cfe0ff" stroke="none">
    <circle cx="40" cy="60" r="4"/><circle cx="130" cy="120" r="6"/><circle cx="220" cy="70" r="5"/>
    <circle cx="310" cy="130" r="6"/><circle cx="160" cy="220" r="5"/><circle cx="270" cy="240" r="4"/>
    <circle cx="250" cy="20" r="3"/><circle cx="380" cy="80" r="4"/><circle cx="70" cy="170" r="4"/>
  </g>
</svg>
